<svg xmlns="http://www.w3.org/2000/svg" xmlns:xlink="http://www.w3.org/1999/xlink" width="12" height="12" viewBox="0 0 12 12">
  <defs>
    <clipPath id="clip-path">
      <rect id="Rectangle_5309" data-name="Rectangle 5309" width="12" height="12" transform="translate(45 59)"/>
    </clipPath>
  </defs>
  <g id="Mask_Group_2" data-name="Mask Group 2" transform="translate(-45 -59)" clip-path="url(#clip-path)">
    <g id="Group_17960" data-name="Group 17960" transform="translate(-869.694 -218.78)">
      <path id="Path_6" data-name="Path 6" d="M998.4,289.691a5.381,5.381,0,0,0,.964-.736,8.108,8.108,0,0,0,1.324-1.523,5.377,5.377,0,0,0,.875-2.169,4.565,4.565,0,0,0-.418-2.641,8.873,8.873,0,0,0-3.021-3.249c-.22-.155-.428.206-.211.36,1.706,1.207,3.478,2.992,3.266,5.258a5.83,5.83,0,0,1-1.981,3.549q-.163.153-.334.3-.076.064-.154.126l-.073.057-.038.029a3.582,3.582,0,0,1-.409.278c-.235.13-.025.491.211.36" transform="translate(-78.986 -0.521)" fill="#e6427a"/>
      <path id="Path_7" data-name="Path 7" d="M1006.4,278.81a10.726,10.726,0,0,0-2.217,2.036,4.893,4.893,0,0,0-.962,2.967,5.783,5.783,0,0,0,.641,2.761,5.2,5.2,0,0,0,1.427,1.667,4.864,4.864,0,0,0,1.478.795c.257.081.367-.322.111-.4a4.373,4.373,0,0,1-1.17-.6,4.819,4.819,0,0,1-1.326-1.394,5.1,5.1,0,0,1-.732-2.393,4.7,4.7,0,0,1,.68-2.885,9.014,9.014,0,0,1,2.281-2.192.216.216,0,0,0,.075-.286.21.21,0,0,0-.285-.075" transform="translate(-84.05)" fill="#e6427a"/>
    </g>
  </g>
</svg>
